HIERARCHY
ROOT Hips
{
    OFFSET 0.000000 0.000000 0.000000
    CHANNELS 6 Xposition Yposition Zposition Zrotation Xrotation Yrotation
        JOINT Chest
        {
            OFFSET -0.000000 31.986500 -0.000000
            CHANNELS 3 Zrotation Xrotation Yrotation
            JOINT Neck
            {
                OFFSET -0.000000 24.131615 0.000000
                CHANNELS 3 Zrotation Xrotation Yrotation
                JOINT Head
                {
                    OFFSET -0.000000 10.450000 0.000000
                    CHANNELS 3 Zrotation Xrotation Yrotation
                    End Site
                    {
                        OFFSET -0.000000 16.150003 0.000000
                    }
                }
            }
            JOINT LeftCollar
            {
                OFFSET -0.000000 24.131615 0.000000
                CHANNELS 3 Zrotation Xrotation Yrotation
                JOINT LeftShoulder
                {
                    OFFSET 20.000000 -0.000000 0.000000
                    CHANNELS 3 Zrotation Xrotation Yrotation
                    JOINT LeftElbow
                    {
                        OFFSET 22.686384 0.000000 0.000000
                        CHANNELS 3 Zrotation Xrotation Yrotation
                        JOINT LeftWrist
                        {
                            OFFSET 24.813133 0.000000 0.000000
                            CHANNELS 3 Zrotation Xrotation Yrotation
                            End Site
                            {
                                OFFSET 0.000000 -14.250000 0.000000
                            }
                        }
                    }
                }
            }
            JOINT RightCollar
            {
                OFFSET -0.000000 24.131615 0.000000
                CHANNELS 3 Zrotation Xrotation Yrotation
                JOINT RightShoulder
                {
                    OFFSET -20.000000 0.000000 0.000000
                    CHANNELS 3 Zrotation Xrotation Yrotation
                    JOINT RightElbow
                    {
                        OFFSET -22.686384 0.000000 0.000000
                        CHANNELS 3 Zrotation Xrotation Yrotation
                        JOINT RightWrist
                        {
                            OFFSET -24.813133 0.000000 0.000000
                            CHANNELS 3 Zrotation Xrotation Yrotation
                            End Site
                            {
                                OFFSET -0.000000 -14.250000 0.000000
                            }
                        }
                    }
                }
            }
        }
    JOINT LeftHip
    {
        OFFSET 11.400001 0.000000 0.000000
        CHANNELS 3 Zrotation Xrotation Yrotation
        JOINT LeftKnee
        {
            OFFSET -0.000000 -38.315727 0.000000
            CHANNELS 3 Zrotation Xrotation Yrotation
            JOINT LeftAnkle
            {
                OFFSET -0.000000 -38.060658 0.000000
                CHANNELS 3 Zrotation Xrotation Yrotation
                End Site
                {
                    OFFSET -0.000000 -4.750000 16.150003
                }
            }
        }
    }
    JOINT RightHip
    {
        OFFSET -11.400001 0.000000 0.000000
        CHANNELS 3 Zrotation Xrotation Yrotation
        JOINT RightKnee
        {
            OFFSET -0.000000 -38.315727 0.000000
            CHANNELS 3 Zrotation Xrotation Yrotation
            JOINT RightAnkle
            {
                OFFSET -0.000000 -38.060658 0.000000
                CHANNELS 3 Zrotation Xrotation Yrotation
                End Site
                {
                    OFFSET -0.000000 -4.750000 16.150003
                }
            }
        }
    }
}
MOTION
Frames:    5
Frame Time:    0.010000
-105.149887    83.526085    -26.940928    2.281981    -4.034516    62.128769    9.392433    14.993552    -4.249072    4.353670    14.991144    -4.556008    -12.534913    -24.256468    -6.736959    -21.661884    -0.544547    2.894465    -36.866970    42.718327    -38.657112    3.754946    -3.424462    -86.224571    131.262909    40.547421    25.270063    29.412193    -1.025121    -3.964381    7.316741    60.010586    37.899605    -23.791460    -12.534857    55.658176    -132.066467    0.054137    -21.106398    16.412518    14.159912    -2.537014    -0.611799    20.661079    -14.018773    -15.541779    -12.057657    31.381979    -5.464091    -19.369127    9.338693    -4.672890    36.081131    3.425837    19.881401    -9.574463    -11.228356    
-105.192146    83.943298    -27.062344    2.110519    -4.044714    62.575493    9.498036    14.478057    -3.692305    4.091356    14.954425    -4.992377    -12.291709    -23.462212    -7.065732    -21.376375    -0.496181    2.744336    -37.403717    42.816605    -37.894676    3.678907    -3.438848    -87.053970    131.816650    40.054363    23.777184    29.287313    -1.055958    -4.123046    6.010408    60.313141    39.321522    -23.482359    -12.407830    55.867466    -132.115036    0.121783    -21.404007    16.572153    13.767159    -2.469485    -0.619626    20.321255    -14.011159    -15.673282    -11.129866    31.224279    -5.413821    -18.905674    9.136642    -4.843493    35.098728    3.241195    19.742498    -8.892279    -11.450499    
-105.231560    84.307480    -27.170012    1.904041    -4.030381    63.121273    9.618468    13.843131    -3.226202    3.871383    14.975533    -5.445728    -12.071265    -22.674849    -7.414120    -21.099867    -0.455297    2.588827    -37.895996    42.831406    -37.129436    3.655710    -3.547220    -87.821358    132.059662    39.767368    22.630890    29.186752    -1.088246    -4.276039    4.660338    60.544876    40.706223    -23.143377    -12.265407    56.107407    -132.175888    0.297648    -21.801947    16.728306    13.293847    -2.577086    -0.622707    20.032293    -13.975409    -15.770564    -10.302016    31.101603    -5.398977    -18.448633    8.980392    -4.909613    34.177120    2.798392    19.578905    -8.382199    -11.567635    
-105.267632    84.607361    -27.270048    1.676770    -3.985995    63.779305    9.739430    13.111296    -2.866605    3.698237    15.055269    -5.917547    -11.859090    -21.948109    -7.784643    -20.832392    -0.477865    2.432781    -38.377525    42.777740    -36.357441    3.777062    -3.778655    -88.511993    131.827667    39.694992    21.968105    29.102158    -1.137947    -4.395178    3.323606    60.710476    42.019005    -22.795534    -12.130169    56.362713    -132.261078    0.555916    -22.291615    16.860264    12.742462    -2.871323    -0.608547    19.807417    -13.919320    -15.832029    -9.616589    31.010883    -5.444300    -18.006096    8.862128    -4.872816    33.350021    2.106495    19.410807    -8.051555    -11.569798    
-105.299545    84.835175    -27.365362    1.448240    -3.912295    64.551094    9.845570    12.313153    -2.617321    3.569353    15.192274    -6.403229    -11.639631    -21.323984    -8.173658    -20.579952    -0.427857    2.290047    -38.824024    42.490070    -35.640415    3.844079    -3.838686    -89.112488    131.399673    39.993828    22.035610    29.029381    -1.172003    -4.448993    2.092387    60.789883    43.177872    -22.400530    -11.967343    56.678532    -132.420792    0.899045    -22.840906    16.953827    12.130175    -3.344633    -0.566333    19.654377    -13.858409    -15.867256    -9.110496    30.945950    -5.563931    -17.577845    8.771749    -4.744741    32.644588    1.207721    19.254972    -7.906170    -11.459915    
